<svg width="37" height="36" viewBox="0 0 37 36" fill="none" xmlns="http://www.w3.org/2000/svg">
<path d="M20.6249 5.09521C22.4232 5.09531 23.9412 6.43239 24.1679 8.21631C24.241 8.7919 24.1721 9.34939 23.9921 9.85693H27.1083C29.3498 9.85693 31.2881 11.4202 31.7626 13.6108C32.4051 16.5779 30.1442 19.3813 27.1083 19.3813H30.3066C33.0828 19.3813 35.4904 21.3 36.1093 24.0063C36.9615 27.7332 34.1296 31.2856 30.3066 31.2856H5.95502C2.13216 31.2855 -0.699889 27.7331 0.15229 24.0063C0.771132 21.3001 3.17895 19.3815 5.95502 19.3813H9.15327C6.11753 19.3812 3.85648 16.5778 4.49897 13.6108C4.97346 11.4203 6.91188 9.85703 9.15327 9.85693H12.2695C12.0896 9.34943 12.0216 8.79186 12.0947 8.21631C12.3214 6.43237 13.8393 5.09521 15.6376 5.09521H20.6249Z" fill="#FFDDDD"/>
<path d="M17.0145 24.563H10.69C10.527 24.563 10.4454 24.563 10.3768 24.5551C9.82837 24.4912 9.39578 24.0586 9.33195 23.5102C9.32397 23.4416 9.32397 23.3601 9.32397 23.197C9.32397 23.0339 9.32397 22.9523 9.33195 22.8838C9.39578 22.3353 9.82837 21.9027 10.3768 21.8389C10.4454 21.8309 10.527 21.8309 10.69 21.8309H17.0145V20.7583H12.8859C12.7886 20.7583 12.74 20.7583 12.6989 20.7554C12.1062 20.7144 11.6345 20.2427 11.5935 19.65C11.5906 19.609 11.5906 19.5603 11.5906 19.463C11.5906 19.3658 11.5906 19.3171 11.5935 19.2761C11.6345 18.6834 12.1062 18.2117 12.6989 18.1706C12.74 18.1678 12.7886 18.1678 12.8859 18.1678H17.0145V17.1559H12.0055C11.8424 17.1559 11.7609 17.1559 11.6923 17.1479C11.1438 17.0841 10.7113 16.6515 10.6474 16.103C10.6395 16.0345 10.6395 15.9529 10.6395 15.7898C10.6395 15.6267 10.6395 15.5452 10.6474 15.4766C10.7113 14.9281 11.1438 14.4956 11.6923 14.4317C11.7609 14.4238 11.8424 14.4238 12.0055 14.4238H13.7764C13.7177 14.3417 13.6884 14.3006 13.6694 14.2703C13.2261 13.5634 13.6286 12.6317 14.4471 12.4699C14.4823 12.463 14.5322 12.4562 14.6322 12.4426L14.9673 12.3971C15.1252 12.3757 15.2041 12.365 15.2783 12.3642C15.6144 12.3607 15.9363 12.4994 16.1645 12.7461C16.215 12.8006 16.2614 12.8653 16.3542 12.9948L17.3787 14.4238H19.949L20.374 13.7761C20.5915 13.4434 20.7863 13.1532 20.9583 12.9055C21.0188 12.8184 21.049 12.7748 21.0967 12.7212C21.3132 12.478 21.6779 12.3176 22.0034 12.3223C22.0751 12.3234 22.1388 12.332 22.2663 12.3494L22.501 12.3812C22.6281 12.3985 22.6916 12.4071 22.7553 12.4231C23.5324 12.6176 23.901 13.5944 23.4462 14.2538C23.4089 14.3079 23.3754 14.3465 23.3085 14.4238H25.0186C25.1817 14.4238 25.2632 14.4238 25.3318 14.4317C25.8803 14.4956 26.3129 14.9281 26.3767 15.4766C26.3847 15.5452 26.3847 15.6267 26.3847 15.7898C26.3847 15.9529 26.3847 16.0345 26.3767 16.103C26.3129 16.6515 25.8803 17.0841 25.3318 17.1479C25.2632 17.1559 25.1817 17.1559 25.0186 17.1559H20.0299V18.1678H24.1383C24.2355 18.1678 24.2842 18.1678 24.3252 18.1706C24.9179 18.2117 25.3896 18.6834 25.4307 19.2761C25.4335 19.3171 25.4335 19.3658 25.4335 19.463C25.4335 19.5603 25.4335 19.609 25.4307 19.65C25.3896 20.2427 24.9179 20.7144 24.3252 20.7554C24.2842 20.7583 24.2355 20.7583 24.1383 20.7583H20.0299V21.8309H26.3341C26.4972 21.8309 26.5787 21.8309 26.6473 21.8389C27.1958 21.9027 27.6284 22.3353 27.6922 22.8838C27.7002 22.9523 27.7002 23.0339 27.7002 23.197C27.7002 23.3601 27.7002 23.4416 27.6922 23.5102C27.6284 24.0586 27.1958 24.4912 26.6473 24.5551C26.5787 24.563 26.4972 24.563 26.3341 24.563H20.0299V25.9089C20.0299 26.2037 20.0299 26.3512 20.0039 26.4735C19.9062 26.9335 19.5468 27.2929 19.0868 27.3906C18.9645 27.4166 18.8171 27.4166 18.5222 27.4166C18.2273 27.4166 18.0799 27.4166 17.9576 27.3906C17.4975 27.2929 17.1382 26.9335 17.0404 26.4735C17.0145 26.3512 17.0145 26.2037 17.0145 25.9089V24.563Z" fill="#3A3A3A"/>
</svg>
