<svg width="46" height="42" viewBox="0 0 46 42" fill="none" xmlns="http://www.w3.org/2000/svg">
<path d="M25.0947 11C26.6053 11 27.8799 12.1235 28.0703 13.6221C28.1317 14.1055 28.0749 14.5737 27.9238 15H30.541C32.4238 15 34.0516 16.3131 34.4502 18.1533C34.9899 20.6457 33.0911 23 30.541 23H33.2275C35.5595 23 37.5817 24.6124 38.1015 26.8857C38.8172 30.0162 36.4387 33 33.2275 33H12.7724C9.56118 33 7.18272 30.0162 7.8984 26.8857C8.41825 24.6124 10.4404 23 12.7724 23H15.4589C12.9088 23 11.0101 20.6457 11.5498 18.1533C11.9483 16.3132 13.5761 15 15.4589 15H18.0761C17.925 14.5737 17.8673 14.1055 17.9287 13.6221C18.1191 12.1234 19.3946 11 20.9052 11H25.0947Z" fill="#FFDDDD"/>
<path d="M21.7417 27.353H16.4292C16.2922 27.353 16.2238 27.353 16.1662 27.3463C15.7054 27.2927 15.3421 26.9293 15.2884 26.4686C15.2817 26.411 15.2817 26.3425 15.2817 26.2055C15.2817 26.0685 15.2817 26 15.2884 25.9424C15.3421 25.4817 15.7054 25.1183 16.1662 25.0647C16.2238 25.058 16.2922 25.058 16.4292 25.058H21.7417V24.157H18.2737C18.192 24.157 18.1512 24.157 18.1167 24.1546C17.6188 24.1201 17.2226 23.7239 17.1881 23.2261C17.1857 23.1916 17.1857 23.1507 17.1857 23.069C17.1857 22.9873 17.1857 22.9464 17.1881 22.9119C17.2226 22.4141 17.6188 22.0179 18.1167 21.9834C18.1512 21.981 18.192 21.981 18.2737 21.981H21.7417V21.131H17.5342C17.3972 21.131 17.3288 21.131 17.2712 21.1243C16.8104 21.0707 16.4471 20.7073 16.3934 20.2466C16.3867 20.189 16.3867 20.1205 16.3867 19.9835C16.3867 19.8465 16.3867 19.778 16.3934 19.7204C16.4471 19.2597 16.8104 18.8963 17.2712 18.8427C17.3288 18.836 17.3972 18.836 17.5342 18.836H19.0217C18.9725 18.767 18.9479 18.7326 18.9319 18.7071C18.5595 18.1133 18.8976 17.3307 19.5852 17.1948C19.6147 17.189 19.6567 17.1833 19.7407 17.1719L20.0221 17.1336C20.1547 17.1156 20.221 17.1066 20.2834 17.106C20.5657 17.103 20.8361 17.2195 21.0278 17.4268C21.0702 17.4725 21.1092 17.5269 21.1871 17.6357L22.0477 18.836H24.2067L24.5637 18.292C24.7465 18.0125 24.9101 17.7688 25.0546 17.5606C25.1054 17.4875 25.1308 17.4509 25.1708 17.4059C25.3527 17.2016 25.659 17.0668 25.9325 17.0708C25.9927 17.0717 26.0462 17.079 26.1533 17.0935L26.3505 17.1203C26.4572 17.1348 26.5105 17.142 26.5641 17.1554C27.2168 17.3188 27.5264 18.1393 27.1444 18.6932C27.1131 18.7387 27.085 18.7711 27.0287 18.836H28.4652C28.6022 18.836 28.6707 18.836 28.7283 18.8427C29.189 18.8963 29.5524 19.2597 29.606 19.7204C29.6127 19.778 29.6127 19.8465 29.6127 19.9835C29.6127 20.1205 29.6127 20.189 29.606 20.2466C29.5524 20.7073 29.189 21.0707 28.7283 21.1243C28.6707 21.131 28.6022 21.131 28.4652 21.131H24.2747V21.981H27.7257C27.8075 21.981 27.8483 21.981 27.8828 21.9834C28.3807 22.0179 28.7769 22.4141 28.8114 22.9119C28.8137 22.9464 28.8137 22.9873 28.8137 23.069C28.8137 23.1507 28.8137 23.1916 28.8114 23.2261C28.7769 23.7239 28.3807 24.1201 27.8828 24.1546C27.8483 24.157 27.8075 24.157 27.7257 24.157H24.2747V25.058H29.5702C29.7072 25.058 29.7757 25.058 29.8333 25.0647C30.294 25.1183 30.6574 25.4817 30.711 25.9424C30.7177 26 30.7177 26.0685 30.7177 26.2055C30.7177 26.3425 30.7177 26.411 30.711 26.4686C30.6574 26.9293 30.294 27.2927 29.8333 27.3463C29.7757 27.353 29.7072 27.353 29.5702 27.353H24.2747V28.4835C24.2747 28.7312 24.2747 28.855 24.2529 28.9578C24.1708 29.3442 23.8689 29.6461 23.4825 29.7282C23.3798 29.75 23.2559 29.75 23.0082 29.75C22.7605 29.75 22.6367 29.75 22.534 29.7282C22.1475 29.6461 21.8456 29.3442 21.7636 28.9578C21.7417 28.855 21.7417 28.7312 21.7417 28.4835V27.353Z" fill="#3A3A3A"/>
</svg>
