<svg width="183" height="36" viewBox="0 0 183 36" fill="none" xmlns="http://www.w3.org/2000/svg">
<path d="M17.7457 28.7663H0.00018835V22.462H17.7457V19.987H5.23044V14.0096H17.7457V11.6746H3.0356V5.37031H10.2739L7.47197 1.44763L15.0372 0.420259L18.5862 5.37031H24.517L25.4976 3.87596C26.5561 2.25707 27.3812 1.07404 27.9727 0.326862L35.5379 1.35423C34.5727 2.63066 33.4831 3.96935 32.2689 5.37031H39.3671V11.6746H24.7038V14.0096H37.1723V19.987H24.7038V22.462H42.4026V28.7663H24.7038V35.3508H17.7457V28.7663ZM79.2011 32.9692H60.8018V35.3508H53.797V23.396C52.1159 24.9526 50.2324 26.447 48.1465 27.8791L45.1578 20.9677C48.1776 18.8195 50.746 16.827 52.863 14.9902C54.9801 13.1223 56.8636 10.9586 58.5136 8.49912H47.913V1.96131H89.288V8.49912H65.425C64.3665 10.4293 63.2146 12.2817 61.9693 14.0563H86.2059V35.3508H79.2011V32.9692ZM60.8018 20.3606V26.6649H79.2011V20.3606H60.8018ZM129.075 9.293H114.739V12.9355H107.967V3.22218H118.428L117.167 0.37356L124.452 -2.93726e-05L125.666 3.22218H135.847V12.9355H129.075V9.293ZM92.7904 24.6569L97.04 23.8163V14.7567H93.7244V8.45242H97.04V1.30753H103.811V8.45242H106.987V14.7567H103.811V22.2285C105.679 21.7304 107.469 21.1545 109.182 20.5007L109.649 26.7583C104.885 28.564 99.6395 30.0739 93.9112 31.2881L92.7904 24.6569ZM136.127 31.8017C134.477 32.798 132.64 33.5763 130.616 34.1367C128.593 34.6971 126.585 34.9773 124.592 34.9773C121.074 34.9773 118.148 34.1055 115.813 32.3621C113.478 30.5876 112.31 27.9413 112.31 24.4234V13.5893H119.222V18.0723C121.463 17.4186 123.58 16.7025 125.573 15.9242C127.565 15.1459 129.215 14.3676 130.523 13.5893L135.006 18.6327C131.301 20.7497 126.04 22.6177 119.222 24.2366V24.4234C119.222 25.4819 119.704 26.338 120.669 26.9918C121.635 27.6456 122.942 27.9725 124.592 27.9725C126.087 27.9725 127.752 27.6767 129.589 27.0852C131.426 26.4937 133.356 25.5753 135.38 24.33L136.127 31.8017ZM175.774 9.293H161.437V12.9355H154.666V3.22218H165.127L163.866 0.37356L171.151 -2.93726e-05L172.365 3.22218H182.545V12.9355H175.774V9.293ZM139.489 24.6569L143.739 23.8163V14.7567H140.423V8.45242H143.739V1.30753H150.51V8.45242H153.685V14.7567H150.51V22.2285C152.378 21.7304 154.168 21.1545 155.88 20.5007L156.347 26.7583C151.584 28.564 146.338 30.0739 140.61 31.2881L139.489 24.6569ZM182.825 31.8017C181.175 32.798 179.339 33.5763 177.315 34.1367C175.291 34.6971 173.283 34.9773 171.291 34.9773C167.773 34.9773 164.846 34.1055 162.511 32.3621C160.177 30.5876 159.009 27.9413 159.009 24.4234V13.5893H165.92V18.0723C168.162 17.4186 170.279 16.7025 172.271 15.9242C174.264 15.1459 175.914 14.3676 177.222 13.5893L181.705 18.6327C178 20.7497 172.738 22.6177 165.92 24.2366V24.4234C165.92 25.4819 166.403 26.338 167.368 26.9918C168.333 27.6456 169.641 27.9725 171.291 27.9725C172.785 27.9725 174.451 27.6767 176.288 27.0852C178.124 26.4937 180.055 25.5753 182.078 24.33L182.825 31.8017Z" fill="#3A3A3A"/>
</svg>
