<svg width="122" height="32" viewBox="0 0 122 32" fill="none" xmlns="http://www.w3.org/2000/svg">
<path d="M32.256 7.64406C29.008 5.29206 26.586 3.59806 24.99 2.56206L27.468 0.840059C29.848 2.40806 32.242 4.06006 34.65 5.79606L32.256 7.64406ZM0.294007 27.4681C1.86201 27.8881 3.12201 28.0981 4.07401 28.0981C4.99801 28.0981 5.67001 27.9021 6.09001 27.5101C6.53801 27.1181 6.76201 26.5301 6.76201 25.7461V18.9841C4.38201 19.6001 2.24001 20.0901 0.336007 20.4541L7.44313e-06 17.5981C3.02401 16.9821 5.27801 16.4781 6.76201 16.0861V8.94606H0.546007V6.21606H6.76201V0.294058H9.87001V6.21606H14.49V8.94606H9.87001V15.2041C11.578 14.7001 12.936 14.2521 13.944 13.8601L14.196 16.6321L9.87001 18.0601V26.3341C9.87001 27.9301 9.42201 29.1621 8.52601 30.0301C7.63001 30.8981 6.32801 31.3321 4.62001 31.3321C3.61201 31.3321 2.36601 31.1361 0.882008 30.7441L0.294007 27.4681ZM39.354 27.5101C38.206 28.7421 37.016 29.6661 35.784 30.2821C34.58 30.8981 33.39 31.2061 32.214 31.2061C30.842 31.2061 29.568 30.7861 28.392 29.9461C27.216 29.1341 26.236 27.9581 25.452 26.4181C25.06 25.6621 24.822 25.1581 24.738 24.9061C21.602 27.2301 18.088 29.2181 14.196 30.8701L12.306 28.2661C16.674 26.4741 20.454 24.4161 23.646 22.0921C22.75 19.4601 22.05 16.2121 21.546 12.3481L14.826 13.2301L14.658 10.5421L21.21 9.66006C20.93 7.11206 20.706 3.89206 20.538 5.94854e-05H23.562C23.73 3.66806 23.954 6.76206 24.234 9.28206L37.632 7.51806L37.8 10.2061L24.57 11.9281C24.962 15.0361 25.508 17.7521 26.208 20.0761C28.924 17.7801 31.206 15.2741 33.054 12.5581L35.994 13.3141C33.418 16.9541 30.492 20.1741 27.216 22.9741C27.412 23.4501 27.734 24.1361 28.182 25.0321C29.246 27.0761 30.562 28.0981 32.13 28.0981C33.922 28.0981 36.022 26.8101 38.43 24.2341L39.354 27.5101ZM74.802 7.51806C72.842 6.00606 70.756 4.49406 68.544 2.98206L71.064 1.30206C73.332 2.87006 75.712 4.57806 78.204 6.42606L75.81 8.23206L74.802 7.51806ZM43.386 26.9641C45.29 27.7201 46.914 28.0981 48.258 28.0981C49.126 28.0981 49.784 27.9161 50.232 27.5521C50.68 27.1601 50.904 26.6001 50.904 25.8721V21.3781C48.16 21.8541 45.458 22.2741 42.798 22.6381L42.21 19.7821C45.318 19.3901 48.216 18.9561 50.904 18.4801V12.3901H42.546V9.66006H50.904V5.33406C49.896 5.44606 48.384 5.58606 46.368 5.75406L44.1 5.96406L43.26 3.31806C47.068 2.98206 50.106 2.68806 52.374 2.43606C54.67 2.18406 57.022 1.84806 59.43 1.42806L60.438 4.03206C58.646 4.36806 56.476 4.69006 53.928 4.99806V9.66006H63.63C63.35 7.02806 63.126 3.80806 62.958 5.94854e-05H65.982C66.15 3.36006 66.388 6.58006 66.696 9.66006H79.506V12.3901H67.032C67.424 15.2181 67.956 17.7521 68.628 19.9921C70.784 18.3681 72.87 16.4641 74.886 14.2801L77.91 15.1201C75.278 18.0041 72.492 20.5241 69.552 22.6801C69.888 23.5201 70.238 24.3041 70.602 25.0321C71.666 27.0761 72.94 28.0981 74.424 28.0981C76.104 28.0981 78.092 26.8241 80.388 24.2761L81.396 27.5101C80.276 28.7421 79.128 29.6661 77.952 30.2821C76.776 30.8981 75.628 31.2061 74.508 31.2061C73.164 31.2061 71.918 30.7861 70.77 29.9461C69.65 29.1341 68.684 27.9581 67.872 26.4181C67.592 25.8581 67.284 25.2141 66.948 24.4861C64.148 26.3341 60.984 28.0001 57.456 29.4841L55.524 27.1741C59.668 25.4661 63.154 23.6881 65.982 21.8401C65.142 19.3201 64.47 16.1701 63.966 12.3901H53.928V17.9341C56.672 17.3461 58.996 16.7581 60.9 16.1701V18.9421C58.688 19.6141 56.364 20.2161 53.928 20.7481V25.8721C53.928 27.5521 53.396 28.8541 52.332 29.7781C51.296 30.6741 49.924 31.1221 48.216 31.1221C46.9 31.1221 45.486 30.8421 43.974 30.2821L43.386 26.9641ZM116.634 9.66006H109.872V16.2121H106.806V9.66006H100.086V15.1621H97.02V9.66006H90.342V16.5901H87.276V6.93006H99.456L101.178 3.90606H84.924V1.17606H121.716V3.90606H104.706L103.026 6.93006H119.658V16.5901H116.634V9.66006ZM117.348 30.9961C113.176 29.7921 109.284 28.7141 105.672 27.7621C103.152 29.0221 100.366 29.9881 97.314 30.6601C94.29 31.3601 90.678 31.6821 86.478 31.6261L85.302 28.6441H86.898C90.398 28.6441 93.366 28.5041 95.802 28.2241C98.238 27.9441 100.338 27.4821 102.102 26.8381C98.994 26.0541 96.432 25.4381 94.416 24.9901L91.644 24.4861C93.044 22.8621 94.066 21.6021 94.71 20.7061H85.302V17.9761H96.642C97.37 16.8561 97.846 16.1001 98.07 15.7081L101.136 16.0441L99.918 17.9761H121.38V20.7061H113.862C112.742 22.0501 111.832 23.1001 111.132 23.8561C110.432 24.6121 109.676 25.2841 108.864 25.8721C113.876 27.0201 118.174 28.1121 121.758 29.1481L119.868 31.7101L117.348 30.9961ZM100.422 24.0241L105.63 25.1581C107.142 24.2341 108.85 22.7501 110.754 20.7061H98.028C97.16 21.8821 96.544 22.6801 96.18 23.1001L100.422 24.0241Z" fill="#3A3A3A"/>
</svg>
